<svg width="320" height="320" viewBox="0 0 320 320" fill="none" xmlns="http://www.w3.org/2000/svg">
<rect x="167.619" width="152.381" height="152.381" rx="5" fill="#F9B05B"/>
<rect x="198.096" y="67.0476" width="91.4286" height="18.2857" rx="5" fill="white"/>
<rect width="152.381" height="152.381" rx="5" fill="#9E7BFF"/>
<path d="M67.0475 114.286C67.0475 118.494 70.4587 121.905 74.6665 121.905H77.7142C81.922 121.905 85.3332 118.494 85.3332 114.286V85.3333H114.286C118.493 85.3333 121.905 81.9222 121.905 77.7143V74.6667C121.905 70.4588 118.493 67.0476 114.286 67.0476H85.3332V38.0952C85.3332 33.8874 81.922 30.4762 77.7142 30.4762H74.6665C70.4587 30.4762 67.0475 33.8874 67.0475 38.0952V67.0476H38.0951C33.8873 67.0476 30.4761 70.4588 30.4761 74.6667V77.7143C30.4761 81.9222 33.8873 85.3333 38.0951 85.3333H67.0475V114.286Z" fill="white"/>
<rect x="167.619" y="167.619" width="152.381" height="152.381" rx="5" fill="#52E0B6"/>
<path d="M264.282 277.212C267.258 280.187 272.082 280.187 275.057 277.212L277.212 275.057C280.188 272.082 280.188 267.257 277.212 264.282L256.74 243.81L277.212 223.337C280.188 220.362 280.188 215.538 277.212 212.562L275.057 210.407C272.082 207.432 267.258 207.432 264.282 210.407L243.81 230.88L223.337 210.407C220.362 207.432 215.538 207.432 212.562 210.407L210.407 212.562C207.432 215.538 207.432 220.362 210.407 223.337L230.88 243.81L210.407 264.282C207.432 267.257 207.432 272.081 210.407 275.057L212.562 277.212C215.538 280.187 220.362 280.187 223.337 277.212L243.81 256.739L264.282 277.212Z" fill="white"/>
<rect y="167.619" width="152.381" height="152.381" rx="5" fill="#FE7193"/>
<rect x="30.4761" y="234.667" width="91.4286" height="18.2857" rx="5" fill="white"/>
<circle cx="76.1907" cy="217.905" r="9.14286" fill="white"/>
<circle cx="76.1907" cy="269.714" r="9.14286" fill="white"/>
</svg>
