<svg width="50" height="50" viewBox="0 0 50 50" fill="none" xmlns="http://www.w3.org/2000/svg">
<rect width="50" height="50" rx="5" fill="#52E0B6"/>
<path d="M31.7175 35.9602C32.6938 36.9365 34.2767 36.9365 35.2531 35.9602L35.9602 35.2531C36.9365 34.2767 36.9365 32.6938 35.9602 31.7175L29.2426 25L35.9602 18.2825C36.9365 17.3062 36.9365 15.7233 35.9602 14.747L35.2531 14.0398C34.2767 13.0635 32.6938 13.0635 31.7175 14.0398L25 20.7574L18.2825 14.0398C17.3062 13.0635 15.7233 13.0635 14.747 14.0398L14.0398 14.747C13.0635 15.7233 13.0635 17.3062 14.0398 18.2825L20.7574 25L14.0398 31.7175C13.0635 32.6938 13.0635 34.2767 14.0398 35.2531L14.747 35.9602C15.7233 36.9365 17.3062 36.9365 18.2825 35.9602L25 29.2426L31.7175 35.9602Z" fill="white"/>
</svg>
